<svg width="214" height="47" viewBox="0 0 214 47" fill="none" xmlns="http://www.w3.org/2000/svg">
<path d="M13.7709 0H27.5418V6.0308H13.7709C12.1446 6.0308 10.7544 6.47305 9.60027 7.35757C8.44614 8.24209 7.86907 9.30753 7.86907 10.5539C7.86907 11.8003 8.44614 12.8657 9.60027 13.7502C10.7544 14.6347 12.1446 15.077 13.7709 15.077H19.6727V13.5693H13.7709V7.53849H27.5418V21.1078H13.7709C9.96749 21.1078 6.72149 20.0776 4.03291 18.017C1.34429 15.9565 0 13.4688 0 10.5539C0 7.63901 1.34429 5.15131 4.03291 3.09079C6.72149 1.03025 9.96749 0 13.7709 0ZM43.8307 15.077C45.457 15.077 46.8472 14.6347 48.0014 13.7502C49.1555 12.8657 49.7326 11.8003 49.7326 10.5539C49.7326 9.30753 49.1555 8.24209 48.0014 7.35757C46.8472 6.47305 45.457 6.0308 43.8307 6.0308C42.2045 6.0308 40.8143 6.47305 39.6601 7.35757C38.506 8.24209 37.9289 9.30753 37.9289 10.5539C37.9289 11.8003 38.506 12.8657 39.6601 13.7502C40.8143 14.6347 42.2045 15.077 43.8307 15.077ZM43.8307 21.1078C40.0274 21.1078 36.7813 20.0776 34.0928 18.017C31.4041 15.9565 30.0599 13.4688 30.0599 10.5539C30.0599 7.63901 31.4041 5.15131 34.0928 3.09079C36.7813 1.03025 40.0274 0 43.8307 0C47.6341 0 50.8802 1.03025 53.5687 3.09079C56.2574 5.15131 57.6016 7.63901 57.6016 10.5539C57.6016 13.4688 56.2574 15.9565 53.5687 18.017C50.8802 20.0776 47.6341 21.1078 43.8307 21.1078ZM67.8707 10.5539V21.1078H60.0016V10.5539C60.0016 7.63901 61.346 5.15131 64.0345 3.09079C66.7233 1.03025 69.9691 0 73.7727 0H79.6743V6.0308H73.7727C72.1464 6.0308 70.756 6.47305 69.6019 7.35757C68.4477 8.24209 67.8707 9.30753 67.8707 10.5539ZM90.4944 13.5693V21.1078H82.6253V0H90.4944V7.53849H96.3962C98.0224 7.53849 99.4126 7.09624 100.567 6.21172C101.721 5.3272 102.298 4.26176 102.298 3.0154V0H110.167V3.0154C110.167 5.93028 108.823 8.41799 106.134 10.4785L106.036 10.5539L106.134 10.6293C108.823 12.6898 110.167 15.1775 110.167 18.0924V21.1078H102.298V18.0924C102.298 16.846 101.721 15.7806 100.567 14.8961C99.4126 14.0115 98.0224 13.5693 96.3962 13.5693H90.4944ZM122.049 21.1078H114.18V0H122.049V21.1078ZM133.853 15.077V21.1078H125.984V15.077H133.853ZM7.86907 36.4461V47H0V36.4461C0 33.5312 1.34429 31.0435 4.03291 28.983C6.72149 26.9224 9.96749 25.8922 13.7709 25.8922C17.5743 25.8922 20.8203 26.9224 23.5088 28.983C26.1975 31.0435 27.5418 33.5312 27.5418 36.4461V47H19.6727V36.4461C19.6727 35.1997 19.0956 34.1343 17.9415 33.2498C16.7874 32.3653 15.3972 31.923 13.7709 31.923C12.1446 31.923 10.7544 32.3653 9.60027 33.2498C8.44614 34.1343 7.86907 35.1997 7.86907 36.4461ZM57.9951 40.9692V47H39.3061C36.8665 47 34.7813 46.3366 33.0501 45.0098C31.3189 43.6831 30.4533 42.085 30.4533 40.2153C30.4533 38.8081 30.9452 37.5518 31.9287 36.4461C30.9452 35.3405 30.4533 34.0841 30.4533 32.6769C30.4533 30.8072 31.3189 29.2092 33.0501 27.8824C34.7813 26.5556 36.8665 25.8922 39.3061 25.8922H57.9951V31.923H39.3061C39.0306 31.923 38.7945 31.9984 38.5977 32.1491C38.4143 32.2898 38.3224 32.4658 38.3224 32.6769C38.3224 32.8879 38.4143 33.0689 38.5977 33.2196C38.7945 33.3604 39.0306 33.4307 39.3061 33.4307H57.9951V39.4615H39.3061C39.0306 39.4615 38.7945 39.5369 38.5977 39.6876C38.4143 39.8283 38.3224 40.0043 38.3224 40.2153C38.3224 40.4264 38.4143 40.6074 38.5977 40.7582C38.7945 40.8988 39.0306 40.9692 39.3061 40.9692H57.9951ZM75.6613 40.9692H81.5629V47H75.6613C71.8577 47 68.6118 45.9698 65.9231 43.9092C63.2346 41.8487 61.8902 39.361 61.8902 36.4461V25.8922H81.5629V31.923H69.7592V36.4461C69.7592 37.6925 70.3363 38.7579 71.4904 39.6424C72.6446 40.5269 74.035 40.9692 75.6613 40.9692ZM123.544 36.4461V25.8922H131.414V36.4461C131.414 39.361 130.069 41.8487 127.381 43.9092C124.692 45.9698 121.446 47 117.643 47C113.839 47 110.593 45.9698 107.905 43.9092L107.806 43.8338L107.708 43.9092C105.019 45.9698 101.773 47 97.97 47C94.1666 47 90.9205 45.9698 88.2321 43.9092C85.5433 41.8487 84.1991 39.361 84.1991 36.4461V25.8922H92.0682V36.4461C92.0682 37.6925 92.6452 38.7579 93.7994 39.6424C94.9535 40.5269 96.3437 40.9692 97.97 40.9692C99.5963 40.9692 100.986 40.5269 102.141 39.6424C103.295 38.7579 103.872 37.6925 103.872 36.4461V25.8922H111.741V36.4461C111.741 37.6925 112.318 38.7579 113.472 39.6424C114.626 40.5269 116.016 40.9692 117.643 40.9692C119.269 40.9692 120.659 40.5269 121.813 39.6424C122.967 38.7579 123.544 37.6925 123.544 36.4461ZM147.663 40.9692C149.289 40.9692 150.68 40.5269 151.834 39.6424C152.988 38.7579 153.565 37.6925 153.565 36.4461C153.565 35.1997 152.988 34.1343 151.834 33.2498C150.68 32.3653 149.289 31.923 147.663 31.923C146.037 31.923 144.647 32.3653 143.493 33.2498C142.339 34.1343 141.761 35.1997 141.761 36.4461C141.761 37.6925 142.339 38.7579 143.493 39.6424C144.647 40.5269 146.037 40.9692 147.663 40.9692ZM147.663 47C143.86 47 140.614 45.9698 137.925 43.9092C135.237 41.8487 133.892 39.361 133.892 36.4461C133.892 33.5312 135.237 31.0435 137.925 28.983C140.614 26.9224 143.86 25.8922 147.663 25.8922C151.467 25.8922 154.713 26.9224 157.401 28.983C160.09 31.0435 161.434 33.5312 161.434 36.4461C161.434 39.361 160.09 41.8487 157.401 43.9092C154.713 45.9698 151.467 47 147.663 47ZM171.703 36.4461V47H163.834V36.4461C163.834 33.5312 165.178 31.0435 167.867 28.983C170.556 26.9224 173.802 25.8922 177.605 25.8922H183.507V31.923H177.605C175.979 31.923 174.589 32.3653 173.434 33.2498C172.28 34.1343 171.703 35.1997 171.703 36.4461ZM194.327 39.4615V47H186.458V25.8922H194.327V33.4307H200.229C201.854 33.4307 203.246 32.9885 204.4 32.1039C205.554 31.2194 206.131 30.154 206.131 28.9076V25.8922H214V28.9076C214 31.8225 212.655 34.3102 209.967 36.3707L209.868 36.4461L209.967 36.5215C212.655 38.582 214 41.0697 214 43.9846V47H206.131V43.9846C206.131 42.7382 205.554 41.6728 204.4 40.7883C203.246 39.9038 201.854 39.4615 200.229 39.4615H194.327Z" fill="black"/>
</svg>
