<svg width="139" height="32" viewBox="0 0 139 32" fill="none" xmlns="http://www.w3.org/2000/svg">
<path d="M8.94464 0H17.8893V4.10607H8.94464C7.88832 4.10607 6.98534 4.40719 6.23569 5.00941C5.48604 5.61163 5.11122 6.33704 5.11122 7.18563C5.11122 8.03422 5.48604 8.75962 6.23569 9.36185C6.98534 9.96407 7.88832 10.2652 8.94464 10.2652H12.7781V9.23867H8.94464V5.13259H17.8893V14.3713H8.94464C6.47421 14.3713 4.36583 13.6698 2.61951 12.2669C0.87316 10.864 0 9.17023 0 7.18563C0 5.20103 0.87316 3.50728 2.61951 2.10437C4.36583 0.701449 6.47421 0 8.94464 0ZM28.4695 10.2652C29.5258 10.2652 30.4288 9.96407 31.1785 9.36185C31.9281 8.75962 32.3029 8.03422 32.3029 7.18563C32.3029 6.33704 31.9281 5.61163 31.1785 5.00941C30.4288 4.40719 29.5258 4.10607 28.4695 4.10607C27.4132 4.10607 26.5102 4.40719 25.7606 5.00941C25.0109 5.61163 24.6361 6.33704 24.6361 7.18563C24.6361 8.03422 25.0109 8.75962 25.7606 9.36185C26.5102 9.96407 27.4132 10.2652 28.4695 10.2652ZM28.4695 14.3713C25.9991 14.3713 23.8907 13.6698 22.1444 12.2669C20.398 10.864 19.5249 9.17023 19.5249 7.18563C19.5249 5.20103 20.398 3.50728 22.1444 2.10437C23.8907 0.701449 25.9991 0 28.4695 0C30.9399 0 33.0483 0.701449 34.7946 2.10437C36.541 3.50728 37.4141 5.20103 37.4141 7.18563C37.4141 9.17023 36.541 10.864 34.7946 12.2669C33.0483 13.6698 30.9399 14.3713 28.4695 14.3713ZM44.0842 7.18563V14.3713H38.973V7.18563C38.973 5.20103 39.8463 3.50728 41.5925 2.10437C43.3389 0.701449 45.4472 0 47.9178 0H51.7511V4.10607H47.9178C46.8614 4.10607 45.9583 4.40719 45.2087 5.00941C44.459 5.61163 44.0842 6.33704 44.0842 7.18563ZM58.779 9.23867V14.3713H53.6678V0H58.779V5.13259H62.6125C63.6688 5.13259 64.5718 4.83148 65.3214 4.22926C66.0711 3.62703 66.4459 2.90163 66.4459 2.05304V0H71.5571V2.05304C71.5571 4.03764 70.684 5.7314 68.9376 7.1343L68.8738 7.18563L68.9376 7.23696C70.684 8.63984 71.5571 10.3336 71.5571 12.3182V14.3713H66.4459V12.3182C66.4459 11.4696 66.0711 10.7442 65.3214 10.142C64.5718 9.53978 63.6688 9.23867 62.6125 9.23867H58.779ZM79.275 14.3713H74.1638V0H79.275V14.3713ZM86.9419 10.2652V14.3713H81.8307V10.2652H86.9419ZM5.11122 24.8144V32H0V24.8144C0 22.8298 0.87316 21.136 2.61951 19.7331C4.36583 18.3302 6.47421 17.6287 8.94464 17.6287C11.4151 17.6287 13.5235 18.3302 15.2697 19.7331C17.0161 21.136 17.8893 22.8298 17.8893 24.8144V32H12.7781V24.8144C12.7781 23.9658 12.4032 23.2404 11.6536 22.6382C10.9039 22.0359 10.001 21.7348 8.94464 21.7348C7.88832 21.7348 6.98534 22.0359 6.23569 22.6382C5.48604 23.2404 5.11122 23.9658 5.11122 24.8144ZM37.6697 27.8939V32H25.5306C23.946 32 22.5916 31.5483 21.4671 30.645C20.3427 29.7417 19.7804 28.6536 19.7804 27.3806C19.7804 26.4225 20.0999 25.5672 20.7387 24.8144C20.0999 24.0616 19.7804 23.2062 19.7804 22.2481C19.7804 20.9751 20.3427 19.8871 21.4671 18.9837C22.5916 18.0804 23.946 17.6287 25.5306 17.6287H37.6697V21.7348H25.5306C25.3517 21.7348 25.1983 21.7862 25.0705 21.8888C24.9513 21.9846 24.8916 22.1044 24.8916 22.2481C24.8916 22.3918 24.9513 22.515 25.0705 22.6176C25.1983 22.7135 25.3517 22.7613 25.5306 22.7613H37.6697V26.8674H25.5306C25.3517 26.8674 25.1983 26.9188 25.0705 27.0214C24.9513 27.1172 24.8916 27.237 24.8916 27.3806C24.8916 27.5244 24.9513 27.6476 25.0705 27.7503C25.1983 27.846 25.3517 27.8939 25.5306 27.8939H37.6697ZM49.1445 27.8939H52.9777V32H49.1445C46.6739 32 44.5656 31.2986 42.8192 29.8956C41.073 28.4928 40.1997 26.799 40.1997 24.8144V17.6287H52.9777V21.7348H45.3109V24.8144C45.3109 25.663 45.6857 26.3884 46.4354 26.9906C47.185 27.5928 48.0881 27.8939 49.1445 27.8939ZM80.2462 24.8144V17.6287H85.3574V24.8144C85.3574 26.799 84.4843 28.4928 82.7379 29.8956C80.9916 31.2986 78.8832 32 76.4128 32C73.9423 32 71.8339 31.2986 70.0877 29.8956L70.0237 29.8443L69.9598 29.8956C68.2135 31.2986 66.1051 32 63.6347 32C61.1643 32 59.0559 31.2986 57.3096 29.8956C55.5632 28.4928 54.6901 26.799 54.6901 24.8144V17.6287H59.8013V24.8144C59.8013 25.663 60.1761 26.3884 60.9258 26.9906C61.6754 27.5928 62.5784 27.8939 63.6347 27.8939C64.691 27.8939 65.594 27.5928 66.3437 26.9906C67.0933 26.3884 67.4681 25.663 67.4681 24.8144V17.6287H72.5793V24.8144C72.5793 25.663 72.9542 26.3884 73.7038 26.9906C74.4535 27.5928 75.3564 27.8939 76.4128 27.8939C77.4691 27.8939 78.3721 27.5928 79.1217 26.9906C79.8714 26.3884 80.2462 25.663 80.2462 24.8144ZM95.912 27.8939C96.9683 27.8939 97.8714 27.5928 98.6211 26.9906C99.3707 26.3884 99.7456 25.663 99.7456 24.8144C99.7456 23.9658 99.3707 23.2404 98.6211 22.6382C97.8714 22.0359 96.9683 21.7348 95.912 21.7348C94.8557 21.7348 93.9528 22.0359 93.2032 22.6382C92.4535 23.2404 92.0787 23.9658 92.0787 24.8144C92.0787 25.663 92.4535 26.3884 93.2032 26.9906C93.9528 27.5928 94.8557 27.8939 95.912 27.8939ZM95.912 32C93.4417 32 91.3333 31.2986 89.5869 29.8956C87.8406 28.4928 86.9675 26.799 86.9675 24.8144C86.9675 22.8298 87.8406 21.136 89.5869 19.7331C91.3333 18.3302 93.4417 17.6287 95.912 17.6287C98.3826 17.6287 100.491 18.3302 102.237 19.7331C103.984 21.136 104.857 22.8298 104.857 24.8144C104.857 26.799 103.984 28.4928 102.237 29.8956C100.491 31.2986 98.3826 32 95.912 32ZM111.527 24.8144V32H106.416V24.8144C106.416 22.8298 107.289 21.136 109.035 19.7331C110.781 18.3302 112.89 17.6287 115.36 17.6287H119.194V21.7348H115.36C114.304 21.7348 113.401 22.0359 112.651 22.6382C111.902 23.2404 111.527 23.9658 111.527 24.8144ZM126.222 26.8674V32H121.11V17.6287H126.222V22.7613H130.055C131.111 22.7613 132.015 22.4602 132.764 21.858C133.514 21.2558 133.889 20.5304 133.889 19.6818V17.6287H139V19.6818C139 21.6664 138.126 23.3602 136.38 24.763L136.316 24.8144L136.38 24.8657C138.126 26.2686 139 27.9624 139 29.947V32H133.889V29.947C133.889 29.0984 133.514 28.373 132.764 27.7707C132.015 27.1685 131.111 26.8674 130.055 26.8674H126.222Z" fill="#1D257B" fill-opacity="0.5"/>
</svg>
