<svg width="201" height="46" viewBox="0 0 201 46" fill="none" xmlns="http://www.w3.org/2000/svg">
<path d="M12.9343 0H25.8687V5.90248H12.9343C11.4068 5.90248 10.1011 6.33533 9.01708 7.20103C7.93306 8.06672 7.39105 9.1095 7.39105 10.3293C7.39105 11.5492 7.93306 12.592 9.01708 13.4577C10.1011 14.3234 11.4068 14.7562 12.9343 14.7562H18.4776V13.2806H12.9343V7.3781H25.8687V20.6587H12.9343C9.36199 20.6587 6.31318 19.6504 3.78792 17.6336C1.26263 15.617 0 13.1822 0 10.3293C0 7.47648 1.26263 5.04171 3.78792 3.02503C6.31318 1.00833 9.36199 0 12.9343 0ZM41.1681 14.7562C42.6956 14.7562 44.0014 14.3234 45.0854 13.4577C46.1694 12.592 46.7114 11.5492 46.7114 10.3293C46.7114 9.1095 46.1694 8.06672 45.0854 7.20103C44.0014 6.33533 42.6956 5.90248 41.1681 5.90248C39.6406 5.90248 38.3349 6.33533 37.2509 7.20103C36.1669 8.06672 35.6248 9.1095 35.6248 10.3293C35.6248 11.5492 36.1669 12.592 37.2509 13.4577C38.3349 14.3234 39.6406 14.7562 41.1681 14.7562ZM41.1681 20.6587C37.5958 20.6587 34.5469 19.6504 32.0218 17.6336C29.4964 15.617 28.2338 13.1822 28.2338 10.3293C28.2338 7.47648 29.4964 5.04171 32.0218 3.02503C34.5469 1.00833 37.5958 0 41.1681 0C44.7405 0 47.7893 1.00833 50.3145 3.02503C52.8399 5.04171 54.1025 7.47648 54.1025 10.3293C54.1025 13.1822 52.8399 15.617 50.3145 17.6336C47.7893 19.6504 44.7405 20.6587 41.1681 20.6587ZM63.7477 10.3293V20.6587H56.3566V10.3293C56.3566 7.47648 57.6194 5.04171 60.1446 3.02503C62.67 1.00833 65.7186 0 69.2912 0H74.8343V5.90248H69.2912C67.7637 5.90248 66.4577 6.33533 65.3737 7.20103C64.2897 8.06672 63.7477 9.1095 63.7477 10.3293ZM84.997 13.2806V20.6587H77.606V0H84.997V7.3781H90.5403C92.0678 7.3781 93.3736 6.94525 94.4576 6.07956C95.5416 5.21386 96.0836 4.17109 96.0836 2.95124V0H103.475V2.95124C103.475 5.80411 102.212 8.23889 99.6867 10.2556L99.5945 10.3293L99.6867 10.4031C102.212 12.4198 103.475 14.8546 103.475 17.7074V20.6587H96.0836V17.7074C96.0836 16.4876 95.5416 15.4448 94.4576 14.5791C93.3736 13.7134 92.0678 13.2806 90.5403 13.2806H84.997ZM114.635 20.6587H107.244V0H114.635V20.6587ZM125.722 14.7562V20.6587H118.331V14.7562H125.722ZM7.39105 35.6707V46H0V35.6707C0 32.8178 1.26263 30.383 3.78792 28.3664C6.31318 26.3496 9.36199 25.3413 12.9343 25.3413C16.5067 25.3413 19.5555 26.3496 22.0807 28.3664C24.6061 30.383 25.8687 32.8178 25.8687 35.6707V46H18.4776V35.6707C18.4776 34.4508 17.9356 33.408 16.8516 32.5423C15.7676 31.6766 14.4618 31.2438 12.9343 31.2438C11.4068 31.2438 10.1011 31.6766 9.01708 32.5423C7.93306 33.408 7.39105 34.4508 7.39105 35.6707ZM54.472 40.0975V46H36.9184C34.627 46 32.6684 45.3507 31.0424 44.0522C29.4164 42.7536 28.6034 41.1896 28.6034 39.3596C28.6034 37.9824 29.0653 36.7528 29.9891 35.6707C29.0653 34.5885 28.6034 33.3589 28.6034 31.9817C28.6034 30.1518 29.4164 28.5877 31.0424 27.2891C32.6684 25.9906 34.627 25.3413 36.9184 25.3413H54.472V31.2438H36.9184C36.6596 31.2438 36.4379 31.3176 36.253 31.4651C36.0807 31.6028 35.9944 31.775 35.9944 31.9817C35.9944 32.1882 36.0807 32.3653 36.253 32.5128C36.4379 32.6506 36.6596 32.7194 36.9184 32.7194H54.472V38.6219H36.9184C36.6596 38.6219 36.4379 38.6957 36.253 38.8432C36.0807 38.9809 35.9944 39.1531 35.9944 39.3596C35.9944 39.5663 36.0807 39.7434 36.253 39.891C36.4379 40.0286 36.6596 40.0975 36.9184 40.0975H54.472ZM71.065 40.0975H76.6081V46H71.065C67.4925 46 64.4438 44.9917 61.9184 42.9749C59.3933 40.9583 58.1305 38.5235 58.1305 35.6707V25.3413H76.6081V31.2438H65.5215V35.6707C65.5215 36.8905 66.0635 37.9333 67.1476 38.799C68.2316 39.6647 69.5375 40.0975 71.065 40.0975ZM116.039 35.6707V25.3413H123.43V35.6707C123.43 38.5235 122.168 40.9583 119.643 42.9749C117.117 44.9917 114.068 46 110.496 46C106.924 46 103.875 44.9917 101.35 42.9749L101.257 42.9011L101.165 42.9749C98.6397 44.9917 95.5909 46 92.0185 46C88.4462 46 85.3973 44.9917 82.8722 42.9749C80.3468 40.9583 79.0842 38.5235 79.0842 35.6707V25.3413H86.4753V35.6707C86.4753 36.8905 87.0173 37.9333 88.1013 38.799C89.1853 39.6647 90.4911 40.0975 92.0185 40.0975C93.546 40.0975 94.8518 39.6647 95.9358 38.799C97.0198 37.9333 97.5618 36.8905 97.5618 35.6707V25.3413H104.953V35.6707C104.953 36.8905 105.495 37.9333 106.579 38.799C107.663 39.6647 108.969 40.0975 110.496 40.0975C112.024 40.0975 113.329 39.6647 114.413 38.799C115.497 37.9333 116.039 36.8905 116.039 35.6707ZM138.693 40.0975C140.22 40.0975 141.526 39.6647 142.61 38.799C143.694 37.9333 144.236 36.8905 144.236 35.6707C144.236 34.4508 143.694 33.408 142.61 32.5423C141.526 31.6766 140.22 31.2438 138.693 31.2438C137.165 31.2438 135.86 31.6766 134.776 32.5423C133.692 33.408 133.15 34.4508 133.15 35.6707C133.15 36.8905 133.692 37.9333 134.776 38.799C135.86 39.6647 137.165 40.0975 138.693 40.0975ZM138.693 46C135.121 46 132.072 44.9917 129.547 42.9749C127.021 40.9583 125.759 38.5235 125.759 35.6707C125.759 32.8178 127.021 30.383 129.547 28.3664C132.072 26.3496 135.121 25.3413 138.693 25.3413C142.265 25.3413 145.314 26.3496 147.839 28.3664C150.365 30.383 151.627 32.8178 151.627 35.6707C151.627 38.5235 150.365 40.9583 147.839 42.9749C145.314 44.9917 142.265 46 138.693 46ZM161.273 35.6707V46H153.882V35.6707C153.882 32.8178 155.144 30.383 157.67 28.3664C160.195 26.3496 163.244 25.3413 166.816 25.3413H172.359V31.2438H166.816C165.288 31.2438 163.983 31.6766 162.899 32.5423C161.815 33.408 161.273 34.4508 161.273 35.6707ZM182.522 38.6219V46H175.131V25.3413H182.522V32.7194H188.065C189.592 32.7194 190.899 32.2866 191.983 31.4209C193.067 30.5552 193.609 29.5124 193.609 28.2926V25.3413H201V28.2926C201 31.1454 199.737 33.5802 197.212 35.5968L197.119 35.6707L197.212 35.7445C199.737 37.7611 201 40.1959 201 43.0488V46H193.609V43.0488C193.609 41.8289 193.067 40.7861 191.983 39.9204C190.899 39.0547 189.592 38.6219 188.065 38.6219H182.522Z" fill="black"/>
</svg>
