<svg width="109" height="25" viewBox="0 0 109 25" fill="none" xmlns="http://www.w3.org/2000/svg">
<path d="M7.01414 0H14.0283V3.20787H7.01414C6.1858 3.20787 5.47771 3.44311 4.88986 3.9136C4.30201 4.38409 4.00808 4.95081 4.00808 5.61377C4.00808 6.27673 4.30201 6.84346 4.88986 7.31394C5.47771 7.78443 6.1858 8.01968 7.01414 8.01968H10.0202V7.21771H7.01414V4.00984H14.0283V11.2275H7.01414C5.0769 11.2275 3.42356 10.6796 2.05415 9.58349C0.684708 8.48751 0 7.16424 0 5.61377C0 4.0633 0.684708 2.74006 2.05415 1.64404C3.42356 0.548007 5.0769 0 7.01414 0ZM22.325 8.01968C23.1533 8.01968 23.8614 7.78443 24.4493 7.31394C25.0371 6.84346 25.3311 6.27673 25.3311 5.61377C25.3311 4.95081 25.0371 4.38409 24.4493 3.9136C23.8614 3.44311 23.1533 3.20787 22.325 3.20787C21.4967 3.20787 20.7886 3.44311 20.2007 3.9136C19.6129 4.38409 19.3189 4.95081 19.3189 5.61377C19.3189 6.27673 19.6129 6.84346 20.2007 7.31394C20.7886 7.78443 21.4967 8.01968 22.325 8.01968ZM22.325 11.2275C20.3878 11.2275 18.7344 10.6796 17.365 9.58349C15.9956 8.48751 15.3109 7.16424 15.3109 5.61377C15.3109 4.0633 15.9956 2.74006 17.365 1.64404C18.7344 0.548007 20.3878 0 22.325 0C24.2622 0 25.9156 0.548007 27.285 1.64404C28.6545 2.74006 29.3391 4.0633 29.3391 5.61377C29.3391 7.16424 28.6545 8.48751 27.285 9.58349C25.9156 10.6796 24.2622 11.2275 22.325 11.2275ZM34.5696 5.61377V11.2275H30.5616V5.61377C30.5616 4.0633 31.2464 2.74006 32.6157 1.64404C33.9852 0.548007 35.6385 0 37.5758 0H40.5818V3.20787H37.5758C36.7475 3.20787 36.0393 3.44311 35.4514 3.9136C34.8636 4.38409 34.5696 4.95081 34.5696 5.61377ZM46.0929 7.21771V11.2275H42.0848V0H46.0929V4.00984H49.099C49.9273 4.00984 50.6354 3.77459 51.2233 3.30411C51.8111 2.83362 52.105 2.26689 52.105 1.60394V0H56.1131V1.60394C56.1131 3.15441 55.4284 4.47766 54.059 5.57367L54.0089 5.61377L54.059 5.65388C55.4284 6.74987 56.1131 8.07314 56.1131 9.62361V11.2275H52.105V9.62361C52.105 8.96065 51.8111 8.39393 51.2233 7.92344C50.6354 7.45295 49.9273 7.21771 49.099 7.21771H46.0929ZM62.1653 11.2275H58.1572V0H62.1653V11.2275ZM68.1774 8.01968V11.2275H64.1694V8.01968H68.1774ZM4.00808 19.3862V25H0V19.3862C0 17.8358 0.684708 16.5125 2.05415 15.4165C3.42356 14.3204 5.0769 13.7725 7.01414 13.7725C8.95138 13.7725 10.6047 14.3204 11.9741 15.4165C13.3436 16.5125 14.0283 17.8358 14.0283 19.3862V25H10.0202V19.3862C10.0202 18.7233 9.72627 18.1565 9.13842 17.6861C8.55057 17.2156 7.84248 16.9803 7.01414 16.9803C6.1858 16.9803 5.47771 17.2156 4.88986 17.6861C4.30201 18.1565 4.00808 18.7233 4.00808 19.3862ZM29.5396 21.7921V25H20.0204C18.7778 25 17.7157 24.6471 16.8339 23.9414C15.9522 23.2357 15.5113 22.3856 15.5113 21.3911C15.5113 20.6426 15.7618 19.9743 16.2628 19.3862C15.7618 18.7981 15.5113 18.1299 15.5113 17.3814C15.5113 16.3868 15.9522 15.5368 16.8339 14.8311C17.7157 14.1253 18.7778 13.7725 20.0204 13.7725H29.5396V16.9803H20.0204C19.8801 16.9803 19.7598 17.0204 19.6596 17.1006C19.5662 17.1754 19.5194 17.269 19.5194 17.3814C19.5194 17.4936 19.5662 17.5898 19.6596 17.67C19.7598 17.7449 19.8801 17.7823 20.0204 17.7823H29.5396V20.9902H20.0204C19.8801 20.9902 19.7598 21.0303 19.6596 21.1104C19.5662 21.1853 19.5194 21.2789 19.5194 21.3911C19.5194 21.5034 19.5662 21.5997 19.6596 21.6799C19.7598 21.7547 19.8801 21.7921 20.0204 21.7921H29.5396ZM38.5377 21.7921H41.5437V25H38.5377C36.6004 25 34.9471 24.452 33.5777 23.3559C32.2083 22.26 31.5235 20.9367 31.5235 19.3862V13.7725H41.5437V16.9803H35.5316V19.3862C35.5316 20.0492 35.8255 20.6159 36.4134 21.0864C37.0012 21.5569 37.7094 21.7921 38.5377 21.7921ZM62.9269 19.3862V13.7725H66.9349V19.3862C66.9349 20.9367 66.2503 22.26 64.8808 23.3559C63.5114 24.452 61.858 25 59.9208 25C57.9836 25 56.3302 24.452 54.9608 23.3559L54.9107 23.3158L54.8606 23.3559C53.4912 24.452 51.8378 25 49.9006 25C47.9634 25 46.31 24.452 44.9406 23.3559C43.5711 22.26 42.8865 20.9367 42.8865 19.3862V13.7725H46.8945V19.3862C46.8945 20.0492 47.1885 20.6159 47.7763 21.0864C48.3642 21.5569 49.0723 21.7921 49.9006 21.7921C50.7289 21.7921 51.437 21.5569 52.0249 21.0864C52.6127 20.6159 52.9067 20.0492 52.9067 19.3862V13.7725H56.9147V19.3862C56.9147 20.0492 57.2087 20.6159 57.7965 21.0864C58.3844 21.5569 59.0925 21.7921 59.9208 21.7921C60.7491 21.7921 61.4572 21.5569 62.0451 21.0864C62.6329 20.6159 62.9269 20.0492 62.9269 19.3862ZM75.2116 21.7921C76.0399 21.7921 76.7481 21.5569 77.336 21.0864C77.9238 20.6159 78.2177 20.0492 78.2177 19.3862C78.2177 18.7233 77.9238 18.1565 77.336 17.6861C76.7481 17.2156 76.0399 16.9803 75.2116 16.9803C74.3832 16.9803 73.6752 17.2156 73.0874 17.6861C72.4995 18.1565 72.2056 18.7233 72.2056 19.3862C72.2056 20.0492 72.4995 20.6159 73.0874 21.0864C73.6752 21.5569 74.3832 21.7921 75.2116 21.7921ZM75.2116 25C73.2744 25 71.6211 24.452 70.2516 23.3559C68.8822 22.26 68.1975 20.9367 68.1975 19.3862C68.1975 17.8358 68.8822 16.5125 70.2516 15.4165C71.6211 14.3204 73.2744 13.7725 75.2116 13.7725C77.1489 13.7725 78.8022 14.3204 80.1717 15.4165C81.541 16.5125 82.2258 17.8358 82.2258 19.3862C82.2258 20.9367 81.541 22.26 80.1717 23.3559C78.8022 24.452 77.1489 25 75.2116 25ZM87.4563 19.3862V25H83.4482V19.3862C83.4482 17.8358 84.1329 16.5125 85.5024 15.4165C86.8718 14.3204 88.5251 13.7725 90.4624 13.7725H93.4684V16.9803H90.4624C89.634 16.9803 88.9259 17.2156 88.3381 17.6861C87.7502 18.1565 87.4563 18.7233 87.4563 19.3862ZM98.9796 20.9902V25H94.9715V13.7725H98.9796V17.7823H101.986C102.814 17.7823 103.522 17.547 104.11 17.0766C104.698 16.6061 104.992 16.0394 104.992 15.3764V13.7725H109V15.3764C109 16.9269 108.315 18.2501 106.946 19.3461L106.896 19.3862L106.946 19.4263C108.315 20.5223 109 21.8456 109 23.3961V25H104.992V23.3961C104.992 22.7331 104.698 22.1664 104.11 21.6959C103.522 21.2254 102.814 20.9902 101.986 20.9902H98.9796Z" fill="#1D257B" fill-opacity="0.5"/>
</svg>
