<svg width="96" height="21" viewBox="0 0 96 21" fill="none" xmlns="http://www.w3.org/2000/svg">
<path d="M6.17759 0H12.3552V2.69461H6.17759C5.44805 2.69461 4.8244 2.89222 4.30666 3.28743C3.78892 3.68263 3.53005 4.15868 3.53005 4.71557C3.53005 5.27246 3.78892 5.7485 4.30666 6.14371C4.8244 6.53892 5.44805 6.73653 6.17759 6.73653H8.82513V6.06287H6.17759V3.36826H12.3552V9.43114H6.17759C4.4714 9.43114 3.01525 8.97083 1.80916 8.05013C0.603046 7.12951 0 6.01796 0 4.71557C0 3.41317 0.603046 2.30165 1.80916 1.38099C3.01525 0.460326 4.4714 0 6.17759 0ZM19.6624 6.73653C20.3919 6.73653 21.0156 6.53892 21.5333 6.14371C22.0511 5.7485 22.3099 5.27246 22.3099 4.71557C22.3099 4.15868 22.0511 3.68263 21.5333 3.28743C21.0156 2.89222 20.3919 2.69461 19.6624 2.69461C18.9328 2.69461 18.3092 2.89222 17.7915 3.28743C17.2737 3.68263 17.0149 4.15868 17.0149 4.71557C17.0149 5.27246 17.2737 5.7485 17.7915 6.14371C18.3092 6.53892 18.9328 6.73653 19.6624 6.73653ZM19.6624 9.43114C17.9562 9.43114 16.5 8.97083 15.294 8.05013C14.0878 7.12951 13.4848 6.01796 13.4848 4.71557C13.4848 3.41317 14.0878 2.30165 15.294 1.38099C16.5 0.460326 17.9562 0 19.6624 0C21.3686 0 22.8248 0.460326 24.0308 1.38099C25.237 2.30165 25.84 3.41317 25.84 4.71557C25.84 6.01796 25.237 7.12951 24.0308 8.05013C22.8248 8.97083 21.3686 9.43114 19.6624 9.43114ZM30.4467 4.71557V9.43114H26.9166V4.71557C26.9166 3.41317 27.5197 2.30165 28.7258 1.38099C29.9319 0.460326 31.388 0 33.0943 0H35.7417V2.69461H33.0943C32.3647 2.69461 31.741 2.89222 31.2233 3.28743C30.7055 3.68263 30.4467 4.15868 30.4467 4.71557ZM40.5956 6.06287V9.43114H37.0655V0H40.5956V3.36826H43.2431C43.9727 3.36826 44.5963 3.17066 45.1141 2.77545C45.6318 2.38024 45.8907 1.90419 45.8907 1.34731V0H49.4207V1.34731C49.4207 2.6497 48.8177 3.76123 47.6116 4.68188L47.5675 4.71557L47.6116 4.74926C48.8177 5.66989 49.4207 6.78144 49.4207 8.08383V9.43114H45.8907V8.08383C45.8907 7.52695 45.6318 7.0509 45.1141 6.65569C44.5963 6.26048 43.9727 6.06287 43.2431 6.06287H40.5956ZM54.7511 9.43114H51.2211V0H54.7511V9.43114ZM60.0462 6.73653V9.43114H56.5161V6.73653H60.0462ZM3.53005 16.2844V21H0V16.2844C0 14.982 0.603046 13.8705 1.80916 12.9499C3.01525 12.0292 4.4714 11.5689 6.17759 11.5689C7.88378 11.5689 9.33995 12.0292 10.546 12.9499C11.7522 13.8705 12.3552 14.982 12.3552 16.2844V21H8.82513V16.2844C8.82513 15.7275 8.56626 15.2515 8.04852 14.8563C7.53078 14.4611 6.90714 14.2635 6.17759 14.2635C5.44805 14.2635 4.8244 14.4611 4.30666 14.8563C3.78892 15.2515 3.53005 15.7275 3.53005 16.2844ZM26.0165 18.3054V21H17.6327C16.5382 21 15.6028 20.7036 14.8262 20.1108C14.0496 19.518 13.6613 18.8039 13.6613 17.9685C13.6613 17.3398 13.882 16.7784 14.3232 16.2844C13.882 15.7904 13.6613 15.2291 13.6613 14.6003C13.6613 13.7649 14.0496 13.0509 14.8262 12.4581C15.6028 11.8653 16.5382 11.5689 17.6327 11.5689H26.0165V14.2635H17.6327C17.5091 14.2635 17.4032 14.2972 17.3149 14.3645C17.2326 14.4274 17.1914 14.506 17.1914 14.6003C17.1914 14.6946 17.2326 14.7754 17.3149 14.8428C17.4032 14.9057 17.5091 14.9371 17.6327 14.9371H26.0165V17.6317H17.6327C17.5091 17.6317 17.4032 17.6654 17.3149 17.7328C17.2326 17.7956 17.1914 17.8743 17.1914 17.9685C17.1914 18.0629 17.2326 18.1437 17.3149 18.2111C17.4032 18.2739 17.5091 18.3054 17.6327 18.3054H26.0165ZM33.9415 18.3054H36.5889V21H33.9415C32.2352 21 30.7791 20.5397 29.573 19.619C28.3669 18.6984 27.7638 17.5868 27.7638 16.2844V11.5689H36.5889V14.2635H31.2939V16.2844C31.2939 16.8413 31.5527 17.3174 32.0705 17.7126C32.5882 18.1078 33.212 18.3054 33.9415 18.3054ZM55.4218 16.2844V11.5689H58.9519V16.2844C58.9519 17.5868 58.3488 18.6984 57.1427 19.619C55.9366 20.5397 54.4805 21 52.7743 21C51.0681 21 49.6119 20.5397 48.4059 19.619L48.3617 19.5853L48.3176 19.619C47.1115 20.5397 45.6553 21 43.9492 21C42.243 21 40.7868 20.5397 39.5807 19.619C38.3746 18.6984 37.7716 17.5868 37.7716 16.2844V11.5689H41.3016V16.2844C41.3016 16.8413 41.5605 17.3174 42.0782 17.7126C42.596 18.1078 43.2196 18.3054 43.9492 18.3054C44.6787 18.3054 45.3023 18.1078 45.8201 17.7126C46.3378 17.3174 46.5967 16.8413 46.5967 16.2844V11.5689H50.1267V16.2844C50.1267 16.8413 50.3856 17.3174 50.9034 17.7126C51.4211 18.1078 52.0447 18.3054 52.7743 18.3054C53.5038 18.3054 54.1275 18.1078 54.6452 17.7126C55.1629 17.3174 55.4218 16.8413 55.4218 16.2844ZM66.2414 18.3054C66.9709 18.3054 67.5947 18.1078 68.1124 17.7126C68.6301 17.3174 68.889 16.8413 68.889 16.2844C68.889 15.7275 68.6301 15.2515 68.1124 14.8563C67.5947 14.4611 66.9709 14.2635 66.2414 14.2635C65.5118 14.2635 64.8883 14.4611 64.3705 14.8563C63.8528 15.2515 63.5939 15.7275 63.5939 16.2844C63.5939 16.8413 63.8528 17.3174 64.3705 17.7126C64.8883 18.1078 65.5118 18.3054 66.2414 18.3054ZM66.2414 21C64.5353 21 63.0791 20.5397 61.873 19.619C60.6669 18.6984 60.0639 17.5868 60.0639 16.2844C60.0639 14.982 60.6669 13.8705 61.873 12.9499C63.0791 12.0292 64.5353 11.5689 66.2414 11.5689C67.9477 11.5689 69.4037 12.0292 70.6099 12.9499C71.8159 13.8705 72.4191 14.982 72.4191 16.2844C72.4191 17.5868 71.8159 18.6984 70.6099 19.619C69.4037 20.5397 67.9477 21 66.2414 21ZM77.0257 16.2844V21H73.4957V16.2844C73.4957 14.982 74.0987 13.8705 75.3049 12.9499C76.5109 12.0292 77.9671 11.5689 79.6733 11.5689H82.3208V14.2635H79.6733C78.9437 14.2635 78.3201 14.4611 77.8024 14.8563C77.2846 15.2515 77.0257 15.7275 77.0257 16.2844ZM87.1747 17.6317V21H83.6446V11.5689H87.1747V14.9371H89.8221C90.5515 14.9371 91.1756 14.7395 91.6933 14.3443C92.2111 13.9491 92.47 13.4731 92.47 12.9162V11.5689H96V12.9162C96 14.2186 95.3966 15.3301 94.1907 16.2507L94.1465 16.2844L94.1907 16.3181C95.3966 17.2388 96 18.3503 96 19.6527V21H92.47V19.6527C92.47 19.0958 92.2111 18.6198 91.6933 18.2246C91.1756 17.8293 90.5515 17.6317 89.8221 17.6317H87.1747Z" fill="black"/>
</svg>
